<?xml version="1.0" standalone="no"?>
<!DOCTYPE svg PUBLIC "-//W3C//DTD SVG 20010904//EN"
 "http://www.w3.org/TR/2001/REC-SVG-20010904/DTD/svg10.dtd">
<svg version="1.0" xmlns="http://www.w3.org/2000/svg"
 width="700.000000pt" height="700.000000pt" viewBox="0 0 700.000000 700.000000"
 preserveAspectRatio="xMidYMid meet">
<metadata>
Created by potrace 1.11, written by Peter Selinger 2001-2013
</metadata>
<g transform="translate(0.000000,700.000000) scale(0.100000,-0.100000)"
fill="#000000" stroke="none">
<path d="M2715 6660 c-429 -154 -1142 -409 -1585 -566 -443 -158 -808 -290
-812 -293 -6 -5 458 -4085 477 -4198 5 -30 31 -45 593 -356 323 -179 932 -516
1354 -750 l768 -425 1351 748 c743 411 1352 750 1354 752 3 2 471 4048 488
4207 2 23 -50 43 -1578 588 -869 310 -1591 566 -1605 568 -16 3 -313 -99 -805
-275z m-367 -1730 c30 -28 38 -68 21 -99 -19 -34 -54 -51 -106 -51 l-43 0 0
-42 c0 -77 -47 -128 -103 -114 -57 14 -67 39 -67 162 0 107 1 112 26 138 26
25 31 26 138 26 99 0 115 -2 134 -20z m665 0 c54 -43 38 -120 -31 -140 -23 -8
-102 -10 -214 -8 -162 3 -179 5 -197 23 -12 11 -23 34 -27 52 -5 27 -1 37 24
63 l30 30 195 0 c179 0 196 -2 220 -20z m662 -5 c33 -32 34 -83 1 -114 -22
-21 -32 -22 -220 -24 l-198 -2 -24 28 c-32 38 -31 81 2 112 27 25 29 25 221
25 193 0 194 0 218 -25z m489 4 c25 -20 26 -23 26 -140 0 -114 -1 -121 -25
-144 -26 -27 -51 -31 -88 -14 -32 15 -47 49 -47 109 l0 50 -57 0 c-44 0 -62 5
-80 22 -32 30 -31 81 2 113 23 24 31 25 133 25 95 0 113 -3 136 -21z m-1969
-500 c18 -18 20 -35 23 -203 3 -147 1 -190 -12 -220 -25 -61 -95 -71 -136 -19
-18 24 -20 41 -20 220 l0 195 30 30 c26 25 36 29 63 24 18 -4 41 -15 52 -27z
m1955 16 c32 -17 38 -33 42 -110 l3 -50 63 -5 c48 -4 67 -10 78 -25 24 -32 27
-61 10 -94 -17 -32 -33 -39 -106 -43 l-45 -3 -3 -629 -2 -630 -22 -23 c-21
-22 -27 -23 -188 -23 -92 0 -377 -3 -633 -7 l-467 -6 0 -54 c0 -65 -29 -103
-80 -103 -51 0 -80 38 -80 105 l0 55 -45 0 c-61 0 -113 23 -125 55 -15 41 -12
54 19 86 26 26 36 29 90 29 l61 0 0 629 c0 620 0 629 21 655 l20 26 635 0 634
0 0 61 c0 54 3 64 29 90 33 33 50 35 91 14z m675 -190 c23 -23 25 -31 25 -132
0 -118 -10 -146 -56 -163 -28 -11 -71 2 -90 28 -8 9 -14 43 -14 75 l0 57 -58
0 c-64 0 -96 20 -108 64 -6 26 17 81 38 89 7 3 64 6 126 6 107 1 114 0 137
-24z m-2638 -489 l28 -24 0 -195 c0 -193 0 -196 -24 -221 -33 -35 -83 -35
-116 -1 -25 24 -25 25 -25 220 0 195 0 196 25 220 31 32 75 32 112 1z m2638
-1 c25 -24 25 -25 25 -220 0 -195 0 -196 -25 -220 -30 -31 -73 -32 -109 -4
l-26 20 0 200 c0 199 0 200 25 224 15 16 36 25 55 25 19 0 40 -9 55 -25z
m-2645 -645 c22 -12 40 -61 40 -111 l0 -39 53 0 c55 -1 76 -11 95 -47 18 -33
14 -59 -12 -90 -24 -28 -25 -28 -141 -28 -116 0 -117 0 -141 28 -22 26 -24 36
-24 136 0 94 3 112 21 135 22 28 73 36 109 16z m2645 -15 c25 -24 25 -25 25
-217 -1 -136 -4 -198 -13 -209 -20 -27 -56 -41 -88 -34 -55 12 -59 30 -59 244
0 186 1 196 22 218 30 32 81 31 113 -2z m-1985 -640 c31 -16 38 -33 42 -105
l3 -45 45 -3 c72 -4 89 -11 105 -42 21 -40 19 -54 -11 -89 l-26 -31 -114 0
c-109 0 -116 1 -139 25 -24 23 -25 31 -25 135 0 117 8 146 43 160 32 13 44 12
77 -5z m1981 -14 c29 -29 29 -31 29 -141 0 -104 -1 -112 -25 -135 -23 -24 -30
-25 -139 -25 l-114 0 -26 31 c-30 35 -32 49 -11 89 16 31 33 38 105 42 l45 3
3 45 c4 71 10 88 40 104 40 22 60 19 93 -13z m-1142 -167 c28 -36 27 -79 -4
-109 -24 -25 -25 -25 -220 -25 -195 0 -196 0 -220 25 -31 30 -32 73 -4 109
l20 26 204 0 204 0 20 -26z m648 11 c41 -29 38 -98 -6 -132 -11 -9 -73 -12
-209 -13 -192 0 -193 0 -217 25 -32 31 -33 80 -3 112 21 23 26 23 218 23 158
0 200 -3 217 -15z"/>
</g>
</svg>
